<svg width="197" height="27" viewBox="0 0 197 27" fill="none" xmlns="http://www.w3.org/2000/svg">
<path d="M13.372 25.172C11.236 25.964 9.244 26.36 7.396 26.36C5.308 26.36 3.616 25.808 2.32 24.704C1.024 23.6 0.376 21.836 0.376 19.412V7.856C0.376 6.032 0.628 4.652 1.132 3.716C1.66 2.78 2.452 1.988 3.508 1.34C4.564 0.739998 5.86 0.439999 7.396 0.439999C9.268 0.439999 10.96 0.835999 12.472 1.628L11.536 4.436C10.384 4.004 9.148 3.788 7.828 3.788C6.676 3.788 5.692 4.1 4.876 4.724C4.06 5.324 3.652 6.26 3.652 7.532V19.34C3.652 21.812 5.056 23.048 7.864 23.048C9.304 23.048 10.96 22.748 12.832 22.148L13.372 25.172ZM29.0762 18.62H22.4522L20.5442 26H16.9082L23.5682 0.799998H27.8522L34.8722 26H31.0562L29.0762 18.62ZM23.2442 15.2H28.2842L25.6922 6.2L23.2442 15.2ZM51.3365 18.296C51.1445 18.344 50.8685 18.368 50.5085 18.368H44.9285V26H41.6525V0.799998H50.2925C52.5965 0.799998 54.3365 1.58 55.5125 3.14C56.6885 4.7 57.2765 6.68 57.2765 9.08C57.2765 10.232 57.2165 11.252 57.0965 12.14C57.0005 13.028 56.7365 13.94 56.3045 14.876C55.8965 15.788 55.2485 16.568 54.3605 17.216L57.3125 26H53.9645L51.3365 18.296ZM49.7885 15.2C51.0365 15.2 51.9485 14.876 52.5245 14.228C53.1245 13.556 53.4965 12.812 53.6405 11.996C53.7845 11.156 53.8565 10.184 53.8565 9.08C53.8565 7.208 53.4605 5.912 52.6685 5.192C51.9005 4.448 50.7725 4.076 49.2845 4.076H44.9285V15.2H49.7885ZM65.5728 0.763999H72.3408C75.0528 0.763999 77.1168 1.508 78.5328 2.996C79.9728 4.484 80.6928 6.464 80.6928 8.936V18.8C80.6928 23.6 78.1488 26 73.0608 26H65.5728V0.763999ZM77.4168 8.576C77.4168 7.016 76.9848 5.864 76.1208 5.12C75.2808 4.376 74.1408 4.004 72.7008 4.004H68.8488V23.012H72.4848C73.9488 23.012 75.1368 22.76 76.0488 22.256C76.9608 21.752 77.4168 20.72 77.4168 19.16V8.576ZM104.495 19.34C104.495 21.764 103.751 23.552 102.263 24.704C100.799 25.832 99.035 26.396 96.971 26.396C95.675 26.396 94.451 26.168 93.299 25.712C92.147 25.232 91.199 24.464 90.455 23.408C89.735 22.352 89.375 20.996 89.375 19.34V7.748C89.375 5.276 90.047 3.404 91.391 2.132C92.759 0.859999 94.631 0.223999 97.007 0.223999C99.383 0.223999 101.219 0.895999 102.515 2.24C103.835 3.584 104.495 5.432 104.495 7.784V19.34ZM101.219 8.504C101.219 6.92 100.883 5.72 100.211 4.904C99.563 4.088 98.471 3.68 96.935 3.68C95.399 3.68 94.295 4.088 93.623 4.904C92.975 5.696 92.651 6.884 92.651 8.468V18.872C92.651 20.216 93.023 21.26 93.767 22.004C94.535 22.748 95.591 23.12 96.935 23.12C98.231 23.12 99.263 22.748 100.031 22.004C100.823 21.236 101.219 20.18 101.219 18.836V8.504ZM113.273 0.799998H116.549V23.012H126.269V26H113.273V0.799998ZM142.736 18.62H136.112L134.204 26H130.568L137.228 0.799998H141.512L148.532 26H144.716L142.736 18.62ZM136.904 15.2H141.944L139.352 6.2L136.904 15.2ZM158.589 7.424V26H155.313V0.799998H158.589L169.713 19.304V0.799998H173.025V26H169.713L158.589 7.424ZM190.858 18.62H184.234L182.326 26H178.69L185.35 0.799998H189.634L196.654 26H192.838L190.858 18.62ZM185.026 15.2H190.066L187.474 6.2L185.026 15.2Z" fill="white"/>
</svg>
